<svg width="250" height="49" viewBox="0 0 250 49" fill="none" xmlns="http://www.w3.org/2000/svg">
<rect y="5" width="50" height="4" fill="#2DC26F"/>
<rect y="18" width="40" height="4" fill="white"/>
<rect y="32" width="45" height="4" fill="#2DC26F"/>
<path d="M77.6016 35.0469L81.4219 34.3906V5.65625C80.5156 5.4375 79.5859 5.26562 78.6328 5.14062C77.6797 5 76.7188 4.92969 75.75 4.92969C73.5938 4.92969 72.0312 5.41406 71.0625 6.38281C70.1094 7.35156 69.6328 8.82812 69.6328 10.8125V12.6406H75.5156V16.0625H69.6328V34.3906L73.4531 35.0469V38H61.1953V35.0469L65.0156 34.3906V16.0625H61.6406V12.6406H65.0156V10.8125C65.0156 7.67188 65.9297 5.24219 67.7578 3.52344C69.6016 1.80469 72.1484 0.945312 75.3984 0.945312C76.7422 0.945312 78.0703 1.07031 79.3828 1.32031C80.6953 1.57031 82.2188 1.92969 83.9531 2.39844H86.0391V34.3906L89.8594 35.0469V38H77.6016V35.0469ZM159.469 25.7891C159.469 21.7109 160.359 18.4219 162.141 15.9219C163.922 13.4219 166.383 12.1719 169.523 12.1719C171.117 12.1719 172.516 12.4844 173.719 13.1094C174.922 13.7344 175.93 14.6406 176.742 15.8281L177.164 12.6406H181.055V37.6719C181.055 40.9531 180.141 43.5312 178.312 45.4062C176.484 47.2969 173.883 48.2422 170.508 48.2422C169.289 48.2422 167.969 48.0703 166.547 47.7266C165.125 47.3984 163.875 46.9453 162.797 46.3672L163.992 42.7812C164.852 43.2344 165.867 43.6094 167.039 43.9062C168.211 44.2031 169.352 44.3516 170.461 44.3516C172.523 44.3516 174.031 43.7734 174.984 42.6172C175.953 41.4609 176.438 39.8125 176.438 37.6719V35.2578C175.609 36.3203 174.617 37.125 173.461 37.6719C172.305 38.2188 170.977 38.4922 169.477 38.4922C166.367 38.4922 163.922 37.3672 162.141 35.1172C160.359 32.8672 159.469 29.9219 159.469 26.2812V25.7891ZM164.086 26.2812C164.086 28.8281 164.625 30.875 165.703 32.4219C166.781 33.9688 168.422 34.7422 170.625 34.7422C172.016 34.7422 173.18 34.4297 174.117 33.8047C175.055 33.1641 175.828 32.2656 176.438 31.1094V19.4375C175.844 18.3594 175.07 17.5078 174.117 16.8828C173.164 16.2422 172.016 15.9219 170.672 15.9219C168.469 15.9219 166.82 16.8438 165.727 18.6875C164.633 20.5312 164.086 22.8984 164.086 25.7891V26.2812ZM186.633 35.0469L190.453 34.3906V16.2734L186.633 15.6172V12.6406H195.07V34.3906L198.891 35.0469V38H186.633V35.0469ZM195.07 6.14844H190.453V1.4375H195.07V6.14844ZM202.453 25.7891C202.453 21.7109 203.344 18.4219 205.125 15.9219C206.906 13.4219 209.367 12.1719 212.508 12.1719C214.102 12.1719 215.5 12.4844 216.703 13.1094C217.906 13.7344 218.914 14.6406 219.727 15.8281L220.148 12.6406H224.039V37.6719C224.039 40.9531 223.125 43.5312 221.297 45.4062C219.469 47.2969 216.867 48.2422 213.492 48.2422C212.273 48.2422 210.953 48.0703 209.531 47.7266C208.109 47.3984 206.859 46.9453 205.781 46.3672L206.977 42.7812C207.836 43.2344 208.852 43.6094 210.023 43.9062C211.195 44.2031 212.336 44.3516 213.445 44.3516C215.508 44.3516 217.016 43.7734 217.969 42.6172C218.938 41.4609 219.422 39.8125 219.422 37.6719V35.2578C218.594 36.3203 217.602 37.125 216.445 37.6719C215.289 38.2188 213.961 38.4922 212.461 38.4922C209.352 38.4922 206.906 37.3672 205.125 35.1172C203.344 32.8672 202.453 29.9219 202.453 26.2812V25.7891ZM207.07 26.2812C207.07 28.8281 207.609 30.875 208.688 32.4219C209.766 33.9688 211.406 34.7422 213.609 34.7422C215 34.7422 216.164 34.4297 217.102 33.8047C218.039 33.1641 218.812 32.2656 219.422 31.1094V19.4375C218.828 18.3594 218.055 17.5078 217.102 16.8828C216.148 16.2422 215 15.9219 213.656 15.9219C211.453 15.9219 209.805 16.8438 208.711 18.6875C207.617 20.5312 207.07 22.8984 207.07 25.7891V26.2812ZM249.023 20.6094H245.555L244.805 17.5625C244.242 17.0312 243.531 16.6094 242.672 16.2969C241.828 15.9688 240.867 15.8047 239.789 15.8047C238.148 15.8047 236.93 16.1641 236.133 16.8828C235.336 17.6016 234.938 18.4688 234.938 19.4844C234.938 20.4844 235.289 21.2734 235.992 21.8516C236.695 22.4297 238.125 22.9453 240.281 23.3984C243.484 24.0859 245.867 25.0234 247.43 26.2109C248.992 27.3828 249.773 28.9609 249.773 30.9453C249.773 33.1953 248.859 35.0156 247.031 36.4062C245.219 37.7969 242.844 38.4922 239.906 38.4922C237.984 38.4922 236.258 38.2734 234.727 37.8359C233.195 37.3828 231.828 36.7344 230.625 35.8906L230.602 30.1016H234.07L234.938 33.5C235.469 33.9844 236.188 34.3359 237.094 34.5547C238.016 34.7734 238.953 34.8828 239.906 34.8828C241.547 34.8828 242.828 34.5547 243.75 33.8984C244.688 33.2266 245.156 32.3516 245.156 31.2734C245.156 30.2578 244.766 29.4219 243.984 28.7656C243.219 28.1094 241.758 27.5391 239.602 27.0547C236.523 26.3828 234.203 25.4688 232.641 24.3125C231.078 23.1562 230.297 21.5938 230.297 19.625C230.297 17.5625 231.172 15.8047 232.922 14.3516C234.688 12.8984 236.977 12.1719 239.789 12.1719C241.711 12.1719 243.438 12.4219 244.969 12.9219C246.5 13.4219 247.773 14.1172 248.789 15.0078L249.023 20.6094Z" fill="#2DC26F"/>
<path d="M105.305 38.4922C101.773 38.4922 98.9609 37.3203 96.8672 34.9766C94.7891 32.6172 93.75 29.5625 93.75 25.8125V24.7812C93.75 21.1719 94.8203 18.1719 96.9609 15.7812C99.1172 13.375 101.664 12.1719 104.602 12.1719C108.008 12.1719 110.586 13.2031 112.336 15.2656C114.102 17.3281 114.984 20.0781 114.984 23.5156V26.3984H98.5312L98.4609 26.5156C98.5078 28.9531 99.125 30.9609 100.312 32.5391C101.5 34.1016 103.164 34.8828 105.305 34.8828C106.867 34.8828 108.234 34.6641 109.406 34.2266C110.594 33.7734 111.617 33.1562 112.477 32.375L114.281 35.375C113.375 36.25 112.172 36.9922 110.672 37.6016C109.188 38.1953 107.398 38.4922 105.305 38.4922ZM104.602 15.8047C103.055 15.8047 101.734 16.4609 100.641 17.7734C99.5469 19.0703 98.875 20.7031 98.625 22.6719L98.6719 22.7891H110.367V22.1797C110.367 20.3672 109.883 18.8516 108.914 17.6328C107.945 16.4141 106.508 15.8047 104.602 15.8047ZM118.922 35.0469L121.641 34.5078L129.117 25.1797L121.875 16.1562L119.156 15.6172V12.6406H129.094V15.6172L126.797 15.8984L131.531 21.9922L136.289 15.875L134.016 15.6172V12.6406H144.023V15.6172L141.305 16.1562L134.062 25.1797L141.516 34.5078L144.258 35.0469V38H134.32V35.0469L136.57 34.7891L131.602 28.4141L126.633 34.7891L128.906 35.0469V38H118.922V35.0469Z" fill="white"/>
</svg>

